<?xml version="1.0" encoding="UTF-8"?>
<!-- Generated by Pixelmator Pro 3.6.18 -->
<svg width="1400" height="1400" viewBox="0 0 1400 1400" xmlns="http://www.w3.org/2000/svg">
    <path id="Disc" fill="#dbd3c2" fill-rule="evenodd" stroke="none" d="M 1371 700.5 C 1371 329.640747 1070.359253 29 699.5 29 C 328.640778 29 28 329.640747 28 700.5 C 28 1071.359253 328.640778 1372 699.5 1372 C 1070.359253 1372 1371 1071.359253 1371 700.5 Z"/>
    <path id="ring" fill="none" stroke="#8b7b62" stroke-width="34" d="M 1371 700.5 C 1371 329.640747 1070.359253 29 699.5 29 C 328.640778 29 28 329.640747 28 700.5 C 28 1071.359253 328.640778 1372 699.5 1372 C 1070.359253 1372 1371 1071.359253 1371 700.5 Z"/>
    <path id="Shape-copy" fill="#ed482b" fill-rule="evenodd" stroke="none" d="M 510.36615 1020.047485 C 247.0746 1020.801514 170.30246 1020.372925 169.895889 1019.581421 C 169.489304 1018.789978 169.0681 1016.314209 168.959854 1014.079712 C 168.796234 1010.70166 170.90744 1009.315735 181.486877 1005.855957 C 188.48497 1003.567383 198.237457 999.120117 203.159088 995.973022 C 208.080719 992.82605 215.249039 986.773865 219.088684 982.523804 C 222.928329 978.273804 228.760147 969.118469 232.048279 962.17865 C 238.026703 949.560791 238.026703 949.560791 238.026703 700 C 238.026703 450.439148 238.026703 450.439148 232.016861 437.754211 C 228.711441 430.777466 222.288452 421.460449 217.743546 417.049805 C 213.198624 412.639099 205.187195 406.562134 199.940338 403.545471 C 194.693481 400.528748 185.471298 397.02948 179.446594 395.769287 C 168.492584 393.478088 168.492584 393.478088 168.492584 386.224243 C 168.492584 378.970459 168.492584 378.970459 284.22403 379.461487 C 399.955475 379.952515 399.955475 379.952515 400.524261 386.71936 C 401.082245 393.357849 400.900818 393.546814 390.959137 396.680664 C 385.385529 398.437561 376.714325 402.482117 371.68988 405.668579 C 366.665405 408.85498 360.361603 413.802429 357.681427 416.662781 C 355.001282 419.523193 350.904968 424.863953 348.578552 428.531128 C 346.252106 432.198364 342.908752 439.554749 341.148834 444.878662 C 339.388916 450.202637 337.109833 464.121277 336.084167 475.80896 C 334.984131 488.344421 334.294983 589.45575 334.403717 722.357605 C 334.505096 846.271606 335.026276 952.830994 335.561859 959.15625 C 336.535706 970.656738 336.535706 970.656738 378.723328 970.139771 C 401.926544 969.855408 426.911865 968.75238 434.246277 967.688599 C 443.299286 966.375488 453.110687 963.039063 464.799469 957.298828 C 476.015778 951.790649 486.459015 944.773438 494.759949 937.167114 C 501.768402 930.745117 514.107239 917.618896 522.179626 907.99762 C 530.252014 898.376343 537.772949 890.504456 538.892761 890.504456 C 540.041016 890.504456 540.719543 893.411682 540.448853 897.172119 C 540.184814 900.839355 533.308228 929.98645 525.167542 961.943604 L 510.36615 1020.047485 Z M 1052.113159 379.952515 C 1188.643921 379.952515 1188.643921 379.952515 1188.643921 386.241821 C 1188.643921 392.122742 1187.922241 392.824402 1177.527954 397.04895 C 1171.414063 399.533813 1162.908813 403.990479 1158.627197 406.952576 C 1154.345581 409.914734 1148.321655 415.767334 1145.240601 419.958435 C 1142.159546 424.149597 1137.921143 431.43634 1135.822021 436.151306 C 1133.318237 441.775513 1131.674561 450.621094 1131.043457 461.869446 C 1130.488159 471.76123 1131.403564 491.507141 1133.206665 508.54303 C 1134.925781 524.783508 1137.595093 556.073914 1139.138794 578.077148 C 1140.682373 600.080444 1143.653564 639.086182 1145.741455 664.756653 C 1147.829468 690.427185 1151.285156 732.004761 1153.420898 757.151306 C 1155.556641 782.297913 1158.976074 826.447327 1161.019775 855.261108 C 1163.063232 884.074951 1165.713257 916.651184 1166.908569 927.652832 C 1168.10376 938.654419 1170.650513 952.724426 1172.567993 958.919434 C 1174.485474 965.114441 1179.109863 974.619507 1182.84436 980.04187 C 1186.578857 985.464172 1193.302856 992.535095 1197.786499 995.755005 C 1202.270142 998.974976 1210.619995 1003.053101 1216.341675 1004.817627 C 1222.063354 1006.582092 1227.816406 1008.346252 1229.126099 1008.737915 C 1230.435791 1009.129639 1231.507446 1012.048828 1231.507446 1015.225098 C 1231.507446 1021 1231.507446 1021 1124.824951 1021 C 1018.142456 1021 1018.142456 1021 1018.142456 1015.440186 C 1018.142456 1010.311096 1019.067505 1009.57251 1030.083496 1005.906616 C 1036.651001 1003.72113 1046.263916 999.150513 1051.445435 995.749878 C 1056.686646 992.310059 1063.207275 985.763306 1066.142578 980.99408 C 1069.044312 976.279053 1072.857666 966.572388 1074.616699 959.423584 C 1077.462524 947.857178 1077.568604 942.822144 1075.579956 913.702515 C 1074.35083 895.704712 1072.087158 865.119751 1070.549683 845.735901 C 1069.012085 826.352051 1066.450562 791.203979 1064.857178 767.629089 C 1063.263916 744.054138 1061.472412 717.050171 1060.876099 707.620178 C 1060.279785 698.190186 1058.952026 679.758911 1057.925537 666.661743 C 1056.899048 653.564514 1054.003662 621.845581 1051.491455 596.175049 C 1048.979004 570.504578 1046.338013 542.429016 1045.622314 533.784851 C 1044.906616 525.140686 1043.780518 518.068237 1043.119629 518.068237 C 1042.458984 518.068237 1034.859253 538.428406 1026.231567 563.313049 C 1017.603943 588.197693 1002.05127 633.418701 991.670166 663.804138 C 981.289001 694.189636 960.794739 753.341248 946.127258 795.252197 C 931.459778 837.163208 912.976013 889.253784 905.052246 911.009033 C 897.128418 932.764282 884.910156 966.45105 877.900574 985.868408 C 865.155884 1021.172729 865.155884 1021.172729 854.557861 1020.610107 C 843.959778 1020.047485 843.959778 1020.047485 831.797791 986.709229 C 825.108643 968.373169 809.504333 926.366943 797.121521 893.362061 C 784.738647 860.357117 764.251526 806.134216 751.594482 772.866699 C 738.9375 739.599182 717.847595 684.305298 704.728149 649.991333 C 691.608704 615.677429 674.31012 570.671265 666.286926 549.977722 C 658.263672 529.284241 651.208069 512.35321 650.607788 512.353394 C 650.007446 512.353516 649.260254 522.855103 648.947388 535.690186 C 648.634521 548.525269 647.15686 575.314819 645.663879 595.222534 C 644.170837 615.130249 642.499878 636.990662 641.950745 643.801208 C 641.401489 650.611694 639.65448 672.900757 638.068481 693.332336 C 636.482422 713.763977 633.919617 745.054321 632.373413 762.866455 C 630.827148 780.67865 628.230347 817.11261 626.602661 843.830872 C 624.975037 870.549133 623.563171 907.840332 623.465271 926.700317 C 623.360229 946.927368 624.171021 964.191284 625.442139 968.793945 C 626.627319 973.08551 630.02356 979.946533 632.989319 984.040588 C 636.307434 988.621094 642.355103 993.413635 648.711609 996.499878 C 654.393066 999.258423 665.471069 1002.568481 673.329407 1003.855713 C 681.187683 1005.142944 688.688782 1007.06012 689.998535 1008.116211 C 691.308228 1009.172241 692.379822 1012.503113 692.379822 1015.518127 C 692.379822 1021 692.379822 1021 614.27301 1021 C 536.166199 1021 536.166199 1021 536.169556 1015.761108 C 536.172241 1011.673462 537.951355 1009.396973 544.265991 1005.401489 C 548.717163 1002.584961 555.098755 997.441406 558.447327 993.971191 C 561.795837 990.500977 566.798096 982.710388 569.563354 976.658813 C 572.328674 970.607178 576.169617 957.748169 578.098877 948.08313 C 580.028137 938.418091 583.384888 917.651367 585.558228 901.934692 C 587.731628 886.218079 591.221985 855.141907 593.314575 832.876587 C 595.407166 810.611206 598.386658 778.034912 599.935608 760.484863 C 601.484619 742.934814 604.09552 710.835327 605.73761 689.152771 C 607.379761 667.470154 609.949951 636.608459 611.449158 620.571167 C 612.948364 604.533875 615.692566 573.83844 617.547424 552.35907 C 619.402222 530.8797 620.924561 497.017517 620.930237 477.109802 C 620.940308 442.058838 620.783325 440.578491 615.967102 430.309326 C 613.23175 424.476807 607.765869 416.570007 603.820801 412.738586 C 599.875671 408.907166 592.320862 403.616089 587.032227 400.980713 C 581.743591 398.345276 573.27887 395.640137 568.221619 394.969238 C 559.026733 393.749512 559.026733 393.749512 559.026733 386.374695 C 559.026733 379 559.026733 379 624.791626 379 C 690.556458 379 690.556458 379 692.31189 383.286377 C 693.277283 385.643799 707.348938 421.434875 723.582153 462.82196 C 739.815369 504.209045 760.797791 558.645691 770.209778 583.792297 C 779.621765 608.938843 795.855042 651.373779 806.283752 678.09198 C 816.712402 704.810242 833.653625 748.959656 843.930908 776.201782 C 854.208191 803.443909 865.916687 834.734314 869.949768 845.735901 C 873.982788 856.737549 877.934326 867.335999 878.730957 869.288025 C 879.804688 871.91925 882.985596 865.513977 891.029846 844.522461 C 896.99762 828.949341 908.812744 796.06189 917.285583 771.439148 C 925.758423 746.816467 943.264587 695.380249 956.18811 657.136475 C 969.111694 618.892761 987.829834 564.027466 997.784058 535.213623 C 1007.73822 506.399841 1024.034424 459.67865 1033.997803 431.388733 L 1052.113159 379.952515 Z"/>
</svg>
