<!--?xml version="1.0" encoding="UTF-8"?-->
<!-- Generated by Pixelmator Pro 3.6.18 -->
<svg width="1500" height="1500" viewBox="0 0 1500 1500" xmlns="http://www.w3.org/2000/svg">
    <path id="Disc" fill-rule="evenodd" stroke="none" d="M 1421 750.5 C 1421 379.640747 1120.359253 79 749.5 79 C 378.640778 79 78 379.640747 78 750.5 C 78 1121.359253 378.640778 1422 749.5 1422 C 1120.359253 1422 1421 1121.359253 1421 750.5 Z" style="fill: rgb(250, 241, 220);"></path>
    <path id="ring" fill="none" stroke-width="34" d="M 1421 750.5 C 1421 379.640747 1120.359253 79 749.5 79 C 378.640778 79 78 379.640747 78 750.5 C 78 1121.359253 378.640778 1422 749.5 1422 C 1120.359253 1422 1421 1121.359253 1421 750.5 Z" style="stroke: rgb(204, 155, 30);"></path>
    <path id="Shape-copy" fill-rule="evenodd" stroke="none" d="M 560.36615 1070.047485 C 297.074585 1070.801514 220.30246 1070.372925 219.895889 1069.581421 C 219.489304 1068.790039 219.0681 1066.314209 218.959854 1064.079712 C 218.796234 1060.70166 220.90744 1059.315674 231.486877 1055.855957 C 238.48497 1053.567383 248.237457 1049.120117 253.159088 1045.973022 C 258.080719 1042.82605 265.249023 1036.773926 269.088684 1032.523804 C 272.928314 1028.273804 278.760162 1019.118469 282.048279 1012.17865 C 288.026703 999.560791 288.026703 999.560791 288.026703 750 C 288.026703 500.439148 288.026703 500.439148 282.016846 487.754211 C 278.711426 480.777466 272.288452 471.460449 267.74353 467.049805 C 263.198639 462.639038 255.187195 456.562134 249.940338 453.54541 C 244.693481 450.528687 235.471298 447.029541 229.446594 445.769287 C 218.492584 443.478027 218.492584 443.478027 218.492584 436.224243 C 218.492584 428.970459 218.492584 428.970459 334.22403 429.461548 C 449.955475 429.952515 449.955475 429.952515 450.524261 436.71936 C 451.082245 443.357788 450.900818 443.546875 440.959137 446.680664 C 435.385529 448.437622 426.714325 452.482178 421.68988 455.668579 C 416.665405 458.85498 410.361603 463.802368 407.681427 466.66272 C 405.001282 469.523193 400.904968 474.864014 398.578552 478.531128 C 396.252106 482.198364 392.908752 489.554749 391.148834 494.878662 C 389.388916 500.202637 387.109833 514.121277 386.084167 525.80896 C 384.984131 538.344421 384.294983 639.45575 384.403717 772.357605 C 384.505096 896.271606 385.026276 1002.830994 385.561859 1009.15625 C 386.535706 1020.656738 386.535706 1020.656738 428.723328 1020.139771 C 451.926544 1019.855408 476.911865 1018.75238 484.246277 1017.688599 C 493.299286 1016.375488 503.110687 1013.039063 514.7995 1007.298828 C 526.015747 1001.790649 536.458984 994.773438 544.759949 987.167114 C 551.768372 980.745117 564.107239 967.618896 572.179626 957.99762 C 580.252014 948.376404 587.772949 940.504456 588.892761 940.504456 C 590.041016 940.504456 590.719543 943.411682 590.448853 947.172119 C 590.184814 950.839294 583.308228 979.986511 575.167542 1011.943604 L 560.36615 1070.047485 Z M 1102.113159 429.952515 C 1238.643921 429.952515 1238.643921 429.952515 1238.643921 436.241821 C 1238.643921 442.122803 1237.922241 442.824463 1227.527954 447.04895 C 1221.414063 449.533813 1212.908813 453.990479 1208.627197 456.952515 C 1204.345581 459.914673 1198.321655 465.767334 1195.240601 469.958496 C 1192.159546 474.149536 1187.921143 481.43634 1185.822021 486.151306 C 1183.318237 491.775513 1181.674561 500.621094 1181.043457 511.869446 C 1180.488159 521.76123 1181.403564 541.507141 1183.206665 558.54303 C 1184.925781 574.783508 1187.595093 606.073914 1189.138794 628.077148 C 1190.682373 650.080444 1193.653564 689.086182 1195.741455 714.756653 C 1197.829468 740.427185 1201.285156 782.004761 1203.420898 807.151306 C 1205.556641 832.297913 1208.976074 876.447327 1211.019775 905.261108 C 1213.063232 934.074951 1215.713257 966.651184 1216.908569 977.652832 C 1218.10376 988.654419 1220.650513 1002.724426 1222.567993 1008.919434 C 1224.485474 1015.114441 1229.109863 1024.619507 1232.84436 1030.04187 C 1236.578857 1035.464111 1243.302856 1042.535156 1247.786499 1045.755005 C 1252.270142 1048.974976 1260.619995 1053.053101 1266.341675 1054.817627 C 1272.063354 1056.582031 1277.816406 1058.346191 1279.126099 1058.737915 C 1280.435791 1059.129639 1281.507446 1062.048828 1281.507446 1065.225098 C 1281.507446 1071 1281.507446 1071 1174.824951 1071 C 1068.142456 1071 1068.142456 1071 1068.142456 1065.440186 C 1068.142456 1060.311035 1069.067505 1059.57251 1080.083496 1055.906616 C 1086.651001 1053.721191 1096.263916 1049.150513 1101.445435 1045.749878 C 1106.686646 1042.310059 1113.207275 1035.763306 1116.142578 1030.994141 C 1119.044312 1026.279053 1122.857666 1016.572388 1124.616699 1009.423584 C 1127.462524 997.857178 1127.568604 992.822144 1125.579956 963.702515 C 1124.35083 945.704712 1122.087158 915.119751 1120.549683 895.735901 C 1119.012085 876.352051 1116.450562 841.203979 1114.857178 817.629089 C 1113.263916 794.054138 1111.472412 767.050171 1110.876099 757.620178 C 1110.279785 748.190186 1108.952026 729.758911 1107.925537 716.661743 C 1106.899048 703.564514 1104.003662 671.845581 1101.491455 646.175049 C 1098.979004 620.504578 1096.338013 592.429016 1095.622314 583.784851 C 1094.906616 575.140686 1093.780518 568.068237 1093.119629 568.068237 C 1092.458984 568.068237 1084.859253 588.428406 1076.231567 613.313049 C 1067.604004 638.197693 1052.05127 683.418701 1041.670166 713.804138 C 1031.28894 744.189636 1010.794739 803.341248 996.127258 845.252197 C 981.459778 887.163208 962.976013 939.253784 955.052246 961.009033 C 947.128418 982.764343 934.910156 1016.45105 927.900574 1035.868408 C 915.155884 1071.172729 915.155884 1071.172729 904.557861 1070.610107 C 893.959778 1070.047485 893.959778 1070.047485 881.797791 1036.709229 C 875.108643 1018.373169 859.504333 976.366882 847.121521 943.362 C 834.738647 910.357117 814.251526 856.134216 801.594482 822.866699 C 788.9375 789.599182 767.847595 734.305298 754.728149 699.991333 C 741.608704 665.677429 724.31012 620.671265 716.286926 599.977722 C 708.263672 579.284241 701.208069 562.35321 700.607788 562.353394 C 700.007446 562.353516 699.260254 572.855103 698.947388 585.690186 C 698.634521 598.525269 697.15686 625.314819 695.663879 645.222534 C 694.170837 665.130249 692.499878 686.990662 691.950745 693.801208 C 691.401489 700.611694 689.65448 722.900757 688.068481 743.332336 C 686.482422 763.763977 683.919617 795.054321 682.373413 812.866455 C 680.827148 830.67865 678.230347 867.11261 676.602661 893.830872 C 674.975037 920.549133 673.563171 957.840332 673.465271 976.700317 C 673.360229 996.927368 674.171021 1014.191284 675.442139 1018.793945 C 676.627319 1023.08551 680.02356 1029.946533 682.989319 1034.040527 C 686.307434 1038.621094 692.355103 1043.413574 698.711609 1046.499878 C 704.393066 1049.258423 715.471069 1052.568481 723.329407 1053.855713 C 731.187683 1055.142944 738.688782 1057.060059 739.998535 1058.116211 C 741.308228 1059.172241 742.379822 1062.503174 742.379822 1065.518066 C 742.379822 1071 742.379822 1071 664.27301 1071 C 586.166199 1071 586.166199 1071 586.169556 1065.761108 C 586.172241 1061.673462 587.951355 1059.396973 594.265991 1055.401489 C 598.717163 1052.584961 605.098755 1047.441406 608.447327 1043.971191 C 611.795837 1040.500977 616.798096 1032.710449 619.563354 1026.658813 C 622.328674 1020.607178 626.169617 1007.748169 628.098877 998.08313 C 630.028137 988.418091 633.384888 967.651306 635.558228 951.934692 C 637.731628 936.218079 641.221985 905.141907 643.314575 882.876587 C 645.407166 860.611206 648.386658 828.034912 649.935608 810.484863 C 651.484619 792.934814 654.09552 760.835327 655.73761 739.152771 C 657.379761 717.470154 659.949951 686.608459 661.449158 670.571167 C 662.948364 654.533875 665.692566 623.83844 667.547424 602.35907 C 669.402222 580.8797 670.924561 547.017517 670.930237 527.109802 C 670.940308 492.058838 670.783325 490.578491 665.967102 480.309326 C 663.23175 474.476807 657.765869 466.569946 653.820801 462.738647 C 649.875671 458.907227 642.320862 453.616089 637.032227 450.980713 C 631.743591 448.345215 623.27887 445.640137 618.221619 444.969238 C 609.026733 443.749512 609.026733 443.749512 609.026733 436.374756 C 609.026733 429 609.026733 429 674.791626 429 C 740.556458 429 740.556458 429 742.31189 433.286377 C 743.277283 435.643799 757.348938 471.434814 773.582153 512.82196 C 789.815369 554.209045 810.797791 608.645691 820.209778 633.792297 C 829.621765 658.938843 845.855042 701.373779 856.283752 728.09198 C 866.712402 754.810242 883.653625 798.959656 893.930908 826.201782 C 904.208191 853.443909 915.916687 884.734314 919.949768 895.735901 C 923.982788 906.737549 927.934326 917.335999 928.730957 919.288025 C 929.804688 921.91925 932.985596 915.513977 941.029846 894.522461 C 946.99762 878.949341 958.812744 846.06189 967.285583 821.439148 C 975.758423 796.816467 993.264587 745.380249 1006.18811 707.136475 C 1019.111694 668.892761 1037.829834 614.027466 1047.784058 585.213623 C 1057.738281 556.399841 1074.034424 509.67865 1083.997803 481.388733 L 1102.113159 429.952515 Z" style="fill: rgb(255, 217, 26);"></path>
</svg>
